<?xml version="1.0" standalone="no"?><!DOCTYPE svg PUBLIC "-//W3C//DTD SVG 1.1//EN" "http://www.w3.org/Graphics/SVG/1.1/DTD/svg11.dtd"><svg height="1342" node-id="1" sillyvg="true" template-height="1342" template-width="1235" version="1.1" viewBox="0 0 1235 1342" width="1235" xmlns="http://www.w3.org/2000/svg" xmlns:xlink="http://www.w3.org/1999/xlink"><defs node-id="79"><linearGradient gradientUnits="userSpaceOnUse" id="paint0_linear_1718_18812" node-id="48" spreadMethod="pad" x1="781.174" x2="781.174" y1="336.35" y2="1197.62"><stop offset="0.02" stop-color="#bfd1ff"></stop><stop offset="1" stop-color="#ffffff"></stop></linearGradient><linearGradient gradientUnits="userSpaceOnUse" id="paint1_linear_1718_18812" node-id="51" spreadMethod="pad" x1="701.146" x2="701.146" y1="365.505" y2="1086.33"><stop offset="0.02" stop-color="#2575f2"></stop><stop offset="1" stop-color="#6a11c1"></stop></linearGradient><linearGradient gradientUnits="userSpaceOnUse" id="paint2_linear_1718_18812" node-id="54" spreadMethod="pad" x1="656.427" x2="641.717" y1="381.56" y2="407.154"><stop offset="0.02" stop-color="#2575f2"></stop><stop offset="1" stop-color="#6a11c1"></stop></linearGradient><linearGradient gradientUnits="userSpaceOnUse" id="paint3_linear_1718_18812" node-id="57" spreadMethod="pad" x1="816.096" x2="842.656" y1="535.07" y2="485.261"><stop offset="0.02" stop-color="#f477bb"></stop><stop offset="1" stop-color="#f695cc"></stop></linearGradient><linearGradient gradientUnits="userSpaceOnUse" id="paint4_linear_1718_18812" node-id="60" spreadMethod="pad" x1="605.55" x2="720.961" y1="734.902" y2="778.172"><stop offset="0" stop-color="#8b87ff"></stop><stop offset="1" stop-color="#f68bc6"></stop></linearGradient><linearGradient gradientUnits="userSpaceOnUse" id="paint5_linear_1718_18812" node-id="63" spreadMethod="pad" x1="605.55" x2="720.961" y1="872.902" y2="916.172"><stop offset="0" stop-color="#8b87ff"></stop><stop offset="1" stop-color="#f68bc6"></stop></linearGradient><linearGradient gradientUnits="userSpaceOnUse" id="paint6_linear_1718_18812" node-id="66" spreadMethod="pad" x1="122.175" x2="107.466" y1="318.849" y2="344.443"><stop offset="0.02" stop-color="#2575f2"></stop><stop offset="1" stop-color="#6a11c1"></stop></linearGradient><linearGradient gradientUnits="userSpaceOnUse" id="paint7_linear_1718_18812" node-id="69" spreadMethod="pad" x1="224.728" x2="279.505" y1="446.316" y2="366.621"><stop offset="0.02" stop-color="#f477bb"></stop><stop offset="1" stop-color="#f695cc"></stop></linearGradient><linearGradient gradientUnits="userSpaceOnUse" id="paint8_linear_1718_18812" node-id="72" spreadMethod="pad" x1="304.8" x2="304.8" y1="868.616" y2="529.665"><stop offset="0" stop-color="#a278de"></stop><stop offset="1" stop-color="#c7daff"></stop></linearGradient><linearGradient gradientUnits="userSpaceOnUse" id="paint9_linear_1718_18812" node-id="75" spreadMethod="pad" x1="70.0022" x2="523.522" y1="915.67" y2="788.669"><stop offset="0.02" stop-color="#2575f2"></stop><stop offset="1" stop-color="#b881ff"></stop></linearGradient></defs><path d="M 350.29 3.16 C 337.60 -4.17 327.33 1.68 327.33 16.28 L 327.33 672.85 C 327.33 678.45 331.27 685.27 336.18 688.15 L 1226.18 1201.94 C 1231.05 1204.76 1235.00 1202.48 1235.00 1196.88 L 1235.00 540.31 C 1235.00 525.72 1224.72 507.98 1211.99 500.64 L 350.29 3.16 Z" fill="url(#paint0_linear_1718_18812)" fill-opacity="0.6" fill-rule="nonzero" node-id="142" stroke="none" target-height="1208.9308" target-width="907.666" target-x="327.334" target-y="-4.17072"></path><path d="M 810.78 350.09 L 283.29 45.51 C 270.60 38.18 234.28 47.85 234.28 62.45 L 232.28 721.20 C 232.28 726.79 236.22 733.61 241.13 736.50 L 1135.10 1255.91 C 1139.99 1258.73 1168.00 1244.90 1168.00 1239.31 L 1168.00 582.69 C 1168.00 568.10 1157.72 550.36 1145.05 543.02 L 810.78 350.09 Z" fill="url(#paint1_linear_1718_18812)" fill-rule="nonzero" node-id="144" stroke="none" target-height="1220.5542" target-width="935.721" target-x="232.279" target-y="38.1758"></path><g node-id="241"><path d="M 1138.89 870.46 L 1138.89 592.35 C 1138.89 577.75 1128.61 560.01 1115.94 552.66 L 254.23 55.16 C 241.54 47.84 231.28 53.67 231.28 68.27 L 231.28 724.85 C 231.28 730.44 235.21 737.27 240.12 740.15 L 1130.18 1254.03 C 1135.05 1256.84 1139.00 1254.56 1139.00 1248.97 L 1139.00 953.30" fill="#ffffff" fill-opacity="0.4" fill-rule="nonzero" group-id="1" node-id="148" stroke="none" target-height="1209.0045" target-width="907.721" target-x="231.279" target-y="47.8354"></path></g><path d="M 1063.54 940.85 L 576.37 671.58 C 565.13 665.08 556.00 647.66 556.00 632.66 L 556.00 310.85 C 556.00 295.84 565.13 288.95 576.37 295.44 L 1063.54 564.73 C 1074.78 571.23 1083.91 588.66 1083.91 603.66 L 1083.91 925.47 C 1083.91 940.45 1074.78 947.35 1063.54 940.85 Z" fill="#ffffff" fill-rule="nonzero" node-id="151" stroke="none" target-height="658.397" target-width="527.91003" target-x="556" target-y="288.949"></path><path d="M 596.00 441.49 C 596.00 437.65 600.10 435.19 603.49 437.00 L 1039.88 669.84 C 1041.46 670.68 1042.45 672.33 1042.45 674.12 L 1042.45 674.12 C 1042.45 677.79 1038.55 680.14 1035.31 678.41 L 598.70 445.99 C 597.04 445.11 596.00 443.38 596.00 441.49 L 596.00 441.49 Z" fill="#dfe6fd" fill-rule="nonzero" node-id="153" stroke="none" target-height="244.948" target-width="446.44995" target-x="596" target-y="435.188"></path><path d="M 596.00 475.22 C 596.00 471.56 599.91 469.22 603.14 470.96 L 867.03 613.02 C 868.52 613.82 869.45 615.38 869.45 617.08 L 869.45 617.08 C 869.45 620.56 865.74 622.78 862.67 621.14 L 598.55 479.49 C 596.98 478.64 596.00 477.00 596.00 475.22 L 596.00 475.22 Z" fill="#dfe6fd" fill-rule="nonzero" node-id="155" stroke="none" target-height="153.565" target-width="273.45203" target-x="596" target-y="469.219"></path><path d="M 596.00 509.21 C 596.00 505.37 600.12 502.92 603.50 504.76 L 937.13 686.68 C 938.68 687.52 939.65 689.15 939.65 690.92 L 939.65 690.92 C 939.65 694.59 935.73 696.92 932.50 695.17 L 598.65 513.67 C 597.02 512.78 596.00 511.07 596.00 509.21 L 596.00 509.21 Z" fill="#dfe6fd" fill-rule="nonzero" node-id="157" stroke="none" target-height="194.00296" target-width="343.648" target-x="596" target-y="502.92"></path><path d="M 596.00 547.48 C 596.00 543.63 600.10 541.17 603.49 542.97 L 987.87 746.84 C 989.46 747.68 990.45 749.34 990.45 751.14 L 990.45 751.14 C 990.45 754.80 986.55 757.15 983.31 755.44 L 598.72 551.99 C 597.04 551.11 596.00 549.37 596.00 547.48 L 596.00 547.48 Z" fill="#dfe6fd" fill-rule="nonzero" node-id="159" stroke="none" target-height="215.979" target-width="394.45203" target-x="596" target-y="541.172"></path><path d="M 596.00 581.25 C 596.00 577.59 599.92 575.26 603.14 577.01 L 819.06 695.02 C 820.53 695.82 821.45 697.37 821.45 699.05 L 821.45 699.05 C 821.45 702.53 817.72 704.75 814.66 703.08 L 598.52 585.49 C 596.97 584.64 596.00 583.02 596.00 581.25 L 596.00 581.25 Z" fill="#dfe6fd" fill-rule="nonzero" node-id="161" stroke="none" target-height="129.49103" target-width="225.45203" target-x="596" target-y="575.258"></path><path d="M 596.00 615.26 C 596.00 611.41 600.14 608.98 603.50 610.85 L 849.18 747.68 C 850.70 748.52 851.65 750.13 851.65 751.88 L 851.65 751.88 C 851.65 755.55 847.71 757.87 844.50 756.09 L 598.60 619.67 C 596.99 618.78 596.00 617.09 596.00 615.26 L 596.00 615.26 Z" fill="#dfe6fd" fill-rule="nonzero" node-id="163" stroke="none" target-height="148.89197" target-width="255.64801" target-x="596" target-y="608.978"></path><path d="M 720.48 458.74 L 612.84 396.60 C 605.78 392.51 600.00 381.57 600.00 372.20 C 600.00 362.78 605.73 358.45 612.84 362.54 L 720.48 424.67 C 727.54 428.75 733.32 439.70 733.32 449.06 C 733.26 458.48 727.54 462.82 720.48 458.74 Z" fill="url(#paint2_linear_1718_18812)" fill-rule="nonzero" node-id="165" stroke="none" target-height="104.36801" target-width="133.31598" target-x="600" target-y="358.455"></path><path d="M 883.48 557.74 L 775.85 495.60 C 768.79 491.51 763.01 480.57 763.01 471.20 C 763.01 461.78 768.75 457.45 775.85 461.54 L 883.48 523.68 C 890.55 527.75 896.32 538.70 896.32 548.07 C 896.23 557.48 890.55 561.82 883.48 557.74 Z" fill="url(#paint3_linear_1718_18812)" fill-rule="nonzero" node-id="167" stroke="none" target-height="104.36801" target-width="133.30298" target-x="763.013" target-y="457.455"></path><path d="M 1063.54 1298.85 L 576.37 1029.58 C 565.13 1023.08 556.00 1005.66 556.00 990.66 L 556.00 703.85 C 556.00 688.84 565.13 681.95 576.37 688.45 L 1063.54 957.73 C 1074.78 964.23 1083.91 981.66 1083.91 996.66 L 1083.91 1283.47 C 1083.91 1298.45 1074.78 1305.35 1063.54 1298.85 Z" fill="#ffffff" fill-rule="nonzero" node-id="169" stroke="none" target-height="623.401" target-width="527.91003" target-x="556" target-y="681.949"></path><path d="M 596.00 747.00 L 596.00 849.07 L 692.55 904.00 L 693.00 804.64 L 596.00 747.00 Z" fill="url(#paint4_linear_1718_18812)" fill-rule="nonzero" node-id="171" stroke="none" target-height="157" target-width="97" target-x="596" target-y="747"></path><path d="M 722.00 847.53 C 722.00 843.68 726.11 841.23 729.50 843.07 L 1036.92 1009.84 C 1038.48 1010.68 1039.45 1012.32 1039.45 1014.09 L 1039.45 1014.09 C 1039.45 1017.76 1035.53 1020.10 1032.31 1018.35 L 724.66 851.99 C 723.02 851.11 722.00 849.39 722.00 847.53 L 722.00 847.53 Z" fill="#dfe6fd" fill-rule="nonzero" node-id="173" stroke="none" target-height="178.86798" target-width="317.44995" target-x="722" target-y="841.232"></path><path d="M 722.00 881.25 C 722.00 877.59 725.92 875.26 729.14 877.01 L 945.06 995.02 C 946.53 995.82 947.45 997.37 947.45 999.05 L 947.45 999.05 C 947.45 1002.53 943.72 1004.75 940.66 1003.08 L 724.52 885.49 C 722.97 884.64 722.00 883.02 722.00 881.25 L 722.00 881.25 Z" fill="#dfe6fd" fill-rule="nonzero" node-id="175" stroke="none" target-height="129.492" target-width="225.45203" target-x="722" target-y="875.258"></path><path d="M 722.00 915.26 C 722.00 911.41 726.14 908.98 729.50 910.85 L 975.18 1047.68 C 976.70 1048.53 977.65 1050.13 977.65 1051.88 L 977.65 1051.88 C 977.65 1055.55 973.71 1057.87 970.50 1056.09 L 724.60 919.67 C 722.99 918.78 722.00 917.09 722.00 915.26 L 722.00 915.26 Z" fill="#dfe6fd" fill-rule="nonzero" node-id="177" stroke="none" target-height="148.89197" target-width="255.64801" target-x="722" target-y="908.978"></path><path d="M 596.00 885.00 L 596.00 987.07 L 692.55 1042.00 L 693.00 942.64 L 596.00 885.00 Z" fill="url(#paint5_linear_1718_18812)" fill-rule="nonzero" node-id="179" stroke="none" target-height="157" target-width="97" target-x="596" target-y="885"></path><path d="M 722.00 985.53 C 722.00 981.68 726.11 979.23 729.50 981.07 L 1036.92 1147.84 C 1038.48 1148.68 1039.45 1150.32 1039.45 1152.09 L 1039.45 1152.09 C 1039.45 1155.76 1035.53 1158.10 1032.31 1156.35 L 724.66 989.99 C 723.02 989.11 722.00 987.39 722.00 985.53 L 722.00 985.53 Z" fill="#dfe6fd" fill-rule="nonzero" node-id="181" stroke="none" target-height="178.86798" target-width="317.44995" target-x="722" target-y="979.232"></path><path d="M 722.00 1019.25 C 722.00 1015.58 725.92 1013.26 729.14 1015.02 L 945.06 1133.02 C 946.53 1133.82 947.45 1135.37 947.45 1137.05 L 947.45 1137.05 C 947.45 1140.53 943.72 1142.75 940.66 1141.08 L 724.52 1023.49 C 722.97 1022.64 722.00 1021.02 722.00 1019.25 L 722.00 1019.25 Z" fill="#dfe6fd" fill-rule="nonzero" node-id="183" stroke="none" target-height="129.48999" target-width="225.45203" target-x="722" target-y="1013.26"></path><path d="M 722.00 1053.26 C 722.00 1049.41 726.14 1046.98 729.50 1048.85 L 975.18 1185.68 C 976.70 1186.53 977.65 1188.13 977.65 1189.88 L 977.65 1189.88 C 977.65 1193.55 973.71 1195.87 970.50 1194.09 L 724.60 1057.67 C 722.99 1056.78 722.00 1055.09 722.00 1053.26 L 722.00 1053.26 Z" fill="#dfe6fd" fill-rule="nonzero" node-id="185" stroke="none" target-height="148.89001" target-width="255.64801" target-x="722" target-y="1046.98"></path><path d="M 115.65 75.80 C 108.35 71.58 102.28 75.01 102.28 83.55 L 102.28 333.73 C 102.56 338.36 103.92 342.86 106.24 346.88 C 108.56 350.89 111.78 354.31 115.65 356.87 L 494.63 576.00 C 502.02 580.23 508.00 576.79 508.00 568.26 L 508.00 317.72 C 507.74 313.07 506.40 308.55 504.08 304.52 C 501.76 300.49 498.52 297.05 494.63 294.50 L 115.65 75.80 Z" fill="#ffffff" fill-opacity="0.6" fill-rule="nonzero" group-id="2" node-id="189" stroke="none" target-height="508.64267" target-width="405.71802" target-x="102.282" target-y="71.5823"></path><path d="M 96.47 284.45 C 96.47 279.84 101.44 276.96 105.44 279.24 L 128.90 292.62 C 130.77 293.69 131.92 295.68 131.92 297.83 L 131.92 314.45 C 131.92 319.06 126.95 321.95 122.95 319.67 L 99.50 306.28 C 97.62 305.21 96.47 303.23 96.47 301.07 L 96.47 284.45 Z" fill="#8b87ff" fill-rule="nonzero" node-id="192" stroke="none" target-height="44.99301" target-width="35.451996" target-x="96.47" target-y="276.956"></path><path d="M 149.55 315.33 C 149.55 310.73 154.52 307.84 158.52 310.12 L 181.97 323.51 C 183.84 324.57 185.00 326.56 185.00 328.72 L 185.00 345.34 C 185.00 349.94 180.03 352.83 176.03 350.55 L 152.57 337.17 C 150.70 336.10 149.55 334.11 149.55 331.95 L 149.55 315.33 Z" fill="#8b87ff" fill-rule="nonzero" node-id="194" stroke="none" target-height="44.99301" target-width="35.451996" target-x="149.548" target-y="307.839"></path><path d="M 205.38 347.34 C 205.38 342.74 210.35 339.85 214.35 342.13 L 237.80 355.52 C 239.68 356.58 240.83 358.57 240.83 360.73 L 240.83 377.35 C 240.83 381.95 235.86 384.84 231.86 382.56 L 208.40 369.18 C 206.53 368.11 205.38 366.12 205.38 363.96 L 205.38 347.34 Z" fill="#8b87ff" fill-rule="nonzero" node-id="196" stroke="none" target-height="44.99298" target-width="35.451996" target-x="205.378" target-y="339.85"></path><path d="M 256.57 376.82 C 256.57 372.21 261.55 369.32 265.55 371.61 L 289.00 384.99 C 290.87 386.06 292.03 388.05 292.03 390.20 L 292.03 406.82 C 292.03 411.43 287.05 414.32 283.05 412.04 L 259.60 398.65 C 257.73 397.58 256.57 395.59 256.57 393.44 L 256.57 376.82 Z" fill="#8b87ff" fill-rule="nonzero" node-id="198" stroke="none" target-height="44.99298" target-width="35.451996" target-x="256.575" target-y="369.325"></path><path d="M 315.95 411.19 C 315.95 406.58 320.92 403.70 324.92 405.97 L 348.37 419.30 C 350.25 420.36 351.41 422.35 351.41 424.51 L 351.41 441.21 C 351.41 445.82 346.43 448.71 342.43 446.42 L 318.98 433.04 C 317.11 431.97 315.95 429.98 315.95 427.83 L 315.95 411.19 Z" fill="#8b87ff" fill-rule="nonzero" node-id="200" stroke="none" target-height="45.010986" target-width="35.452026" target-x="315.955" target-y="403.696"></path><path d="M 98.41 177.80 C 98.41 173.18 103.41 170.30 107.41 172.61 L 283.31 274.15 C 285.17 275.22 286.31 277.20 286.31 279.34 L 286.31 301.64 C 286.31 306.26 281.31 309.15 277.31 306.84 L 101.41 205.30 C 99.55 204.23 98.41 202.25 98.41 200.10 L 98.41 177.80 Z" fill="#f68bc6" fill-rule="nonzero" node-id="202" stroke="none" target-height="138.85101" target-width="187.90399" target-x="98.405" target-y="170.297"></path><path d="M 74.37 105.79 C 66.98 101.57 61.00 105.08 61.00 113.53 L 61.00 358.35 C 61.26 362.98 62.60 367.50 64.92 371.51 C 67.24 375.53 70.48 378.95 74.37 381.49 L 453.35 600.27 C 460.65 604.49 466.72 601.06 466.72 592.52 L 466.72 347.80 C 466.44 343.18 465.09 338.69 462.77 334.68 C 460.45 330.68 457.22 327.28 453.35 324.75 L 74.37 105.79 Z" fill="#ffffff" fill-rule="nonzero" node-id="204" stroke="none" target-height="502.922" target-width="405.718" target-x="61" target-y="101.567"></path><path d="M 173.12 386.94 L 92.84 340.60 C 85.78 336.52 80.00 325.58 80.00 316.21 C 80.00 306.79 85.73 302.46 92.84 306.53 L 173.12 352.89 C 180.18 356.97 185.96 367.91 185.96 377.28 C 185.91 386.70 180.23 391.03 173.12 386.94 Z" fill="url(#paint6_linear_1718_18812)" fill-rule="nonzero" node-id="206" stroke="none" target-height="88.565" target-width="105.96001" target-x="80" target-y="302.461"></path><path d="M 287.81 453.16 L 207.53 406.81 C 200.47 402.73 194.69 391.80 194.69 382.42 C 194.69 373.00 200.41 368.68 207.53 372.76 L 287.81 419.10 C 294.87 423.18 300.65 434.12 300.65 443.49 C 300.60 452.91 294.87 457.24 287.81 453.16 Z" fill="url(#paint7_linear_1718_18812)" fill-rule="nonzero" node-id="208" stroke="none" target-height="88.565" target-width="105.95999" target-x="194.689" target-y="368.675"></path><path d="M 79.65 175.67 C 79.65 169.63 86.19 165.86 91.42 168.88 L 169.61 214.10 C 172.03 215.50 173.51 218.07 173.51 220.86 L 173.51 220.86 C 173.51 226.88 167.01 230.63 161.80 227.63 L 83.57 182.47 C 81.15 181.06 79.65 178.48 79.65 175.67 L 79.65 175.67 Z" fill="#dfe6fd" fill-rule="nonzero" node-id="210" stroke="none" target-height="64.772" target-width="93.8641" target-x="79.6509" target-y="165.862"></path><path d="M 79.65 214.62 C 79.65 210.90 83.68 208.57 86.91 210.44 L 442.58 416.23 C 444.07 417.10 444.99 418.69 444.99 420.42 L 444.99 420.42 C 444.99 424.14 440.96 426.47 437.73 424.60 L 82.06 218.81 C 80.57 217.94 79.65 216.35 79.65 214.62 L 79.65 214.62 Z" fill="#dfe6fd" fill-rule="nonzero" node-id="212" stroke="none" target-height="217.89699" target-width="365.3401" target-x="79.6509" target-y="208.572"></path><path d="M 79.65 251.77 C 79.65 248.07 83.65 245.77 86.85 247.62 L 286.43 363.27 C 287.93 364.14 288.84 365.73 288.84 367.45 L 288.84 367.45 C 288.84 371.18 284.81 373.50 281.59 371.63 L 82.04 255.92 C 80.56 255.06 79.65 253.48 79.65 251.77 L 79.65 251.77 Z" fill="#dfe6fd" fill-rule="nonzero" node-id="214" stroke="none" target-height="127.73599" target-width="209.19308" target-x="79.6509" target-y="245.767"></path><path d="M 115.37 434.81 C 108.07 430.58 102.00 434.01 102.00 442.55 L 102.00 693.09 C 102.28 697.71 103.64 702.21 105.96 706.23 C 108.28 710.25 111.50 713.66 115.37 716.22 L 494.35 934.65 C 501.74 938.87 507.72 935.44 507.72 926.91 L 507.72 676.72 C 507.45 672.09 506.10 667.59 503.78 663.57 C 501.46 659.55 498.23 656.13 494.35 653.59 L 115.37 434.81 Z" fill="url(#paint8_linear_1718_18812)" fill-opacity="0.8" fill-rule="nonzero" group-id="3" node-id="218" stroke="none" target-height="508.291" target-width="405.718" target-x="102" target-y="430.582"></path><path d="M 66.37 453.81 C 59.07 449.58 53.00 453.01 53.00 461.55 L 53.00 712.09 C 53.28 716.71 54.64 721.21 56.96 725.23 C 59.28 729.25 62.50 732.66 66.37 735.22 L 445.35 953.65 C 452.74 957.87 458.72 954.44 458.72 945.91 L 458.72 695.72 C 458.45 691.09 457.10 686.59 454.78 682.57 C 452.46 678.55 449.23 675.13 445.35 672.59 L 66.37 453.81 Z" fill="url(#paint9_linear_1718_18812)" fill-rule="nonzero" node-id="221" stroke="none" target-height="508.291" target-width="405.718" target-x="53" target-y="449.582"></path><path d="M 75.00 512.59 C 75.00 506.56 81.54 502.78 86.77 505.81 L 164.96 551.02 C 167.38 552.42 168.86 555.00 168.86 557.78 L 168.86 557.78 C 168.86 563.80 162.35 567.55 157.15 564.55 L 78.92 519.39 C 76.49 517.99 75.00 515.40 75.00 512.59 L 75.00 512.59 Z" fill="#ffffff" fill-rule="nonzero" node-id="223" stroke="none" target-height="64.772" target-width="93.864" target-x="75" target-y="502.782"></path><path d="M 75.00 664.00 L 110.45 684.23 L 110.45 714.67 L 75.00 694.44 L 75.00 664.00 Z" fill="#ffffff" fill-rule="nonzero" node-id="225" stroke="none" target-height="50.67102" target-width="35.452003" target-x="75" target-y="664"></path><path d="M 132.00 695.00 L 167.45 715.23 L 167.45 745.67 L 132.00 725.44 L 132.00 695.00 Z" fill="#ffffff" fill-rule="nonzero" node-id="227" stroke="none" target-height="50.67102" target-width="35.451996" target-x="132" target-y="695"></path><path d="M 183.91 726.89 L 219.36 747.13 L 219.36 777.56 L 183.91 757.33 L 183.91 726.89 Z" fill="#ffffff" fill-rule="nonzero" node-id="229" stroke="none" target-height="50.670044" target-width="35.451996" target-x="183.908" target-y="726.894"></path><path d="M 235.10 756.37 L 270.56 776.60 L 270.56 807.04 L 235.10 786.81 L 235.10 756.37 Z" fill="#ffffff" fill-rule="nonzero" node-id="231" stroke="none" target-height="50.67096" target-width="35.45201" target-x="235.105" target-y="756.369"></path><path d="M 294.49 790.76 L 329.94 810.90 L 329.94 841.43 L 294.49 821.20 L 294.49 790.76 Z" fill="#ffffff" fill-rule="nonzero" node-id="233" stroke="none" target-height="50.67102" target-width="35.452026" target-x="294.485" target-y="790.758"></path><path d="M 75.31 550.67 C 75.31 546.82 79.48 544.42 82.81 546.35 L 423.38 743.83 C 424.85 744.69 425.76 746.26 425.76 747.96 L 425.76 747.96 C 425.76 751.62 421.79 753.92 418.61 752.08 L 77.80 555.00 C 76.26 554.10 75.31 552.46 75.31 550.67 L 75.31 550.67 Z" fill="#ffffff" fill-rule="nonzero" node-id="235" stroke="none" target-height="209.49799" target-width="350.4521" target-x="75.3059" target-y="544.419"></path><path d="M 75.31 585.35 C 75.31 581.68 79.27 579.39 82.45 581.21 L 425.48 778.01 C 426.89 778.83 427.76 780.33 427.76 781.95 L 427.76 781.95 C 427.76 785.44 423.99 787.62 420.97 785.89 L 77.71 589.49 C 76.22 588.64 75.31 587.06 75.31 585.35 L 75.31 585.35 Z" fill="#ffffff" fill-rule="nonzero" node-id="237" stroke="none" target-height="208.23401" target-width="352.4521" target-x="75.3059" target-y="579.388"></path><path d="M 75.31 622.35 C 75.31 618.50 79.48 616.10 82.81 618.04 L 281.58 733.67 C 283.05 734.53 283.95 736.10 283.95 737.79 L 283.95 737.79 C 283.95 741.46 279.98 743.75 276.80 741.91 L 77.80 626.67 C 76.25 625.78 75.31 624.13 75.31 622.35 L 75.31 622.35 Z" fill="#ffffff" fill-rule="nonzero" node-id="239" stroke="none" target-height="127.65204" target-width="208.6481" target-x="75.3059" target-y="616.102"></path></svg>