<?xml version="1.0" standalone="no"?><!DOCTYPE svg PUBLIC "-//W3C//DTD SVG 1.1//EN" "http://www.w3.org/Graphics/SVG/1.1/DTD/svg11.dtd"><svg height="1565" node-id="1" sillyvg="true" template-height="1565" template-width="1359" version="1.1" viewBox="0 0 1359 1565" width="1359" xmlns="http://www.w3.org/2000/svg" xmlns:xlink="http://www.w3.org/1999/xlink"><defs node-id="108"><linearGradient gradientUnits="userSpaceOnUse" id="paint0_linear_1707_19082" node-id="41" spreadMethod="pad" x1="828.174" x2="828.174" y1="374.35" y2="1235.62"><stop offset="0.02" stop-color="#bfd1ff"></stop><stop offset="1" stop-color="#ffffff"></stop></linearGradient><linearGradient gradientUnits="userSpaceOnUse" id="paint1_linear_1707_19082" node-id="44" spreadMethod="pad" x1="719.681" x2="719.681" y1="449.327" y2="1170.16"><stop offset="0.02" stop-color="#2575f2"></stop><stop offset="1" stop-color="#6a11c1"></stop></linearGradient><linearGradient gradientUnits="userSpaceOnUse" id="paint2_linear_1707_19082" node-id="47" spreadMethod="pad" x1="1121.35" x2="267.355" y1="686.309" y2="233.481"><stop offset="0.02" stop-color="#2575f2"></stop><stop offset="1" stop-color="#6a11c1"></stop></linearGradient><linearGradient gradientUnits="userSpaceOnUse" id="paint3_linear_1707_19082" node-id="50" spreadMethod="pad" x1="337.677" x2="1088.25" y1="982.021" y2="982.021"><stop offset="0" stop-color="#623fe9"></stop><stop offset="0.1676" stop-color="#6d49e8"></stop><stop offset="0.7004" stop-color="#8c65e5"></stop><stop offset="1" stop-color="#976fe4"></stop></linearGradient><linearGradient gradientUnits="userSpaceOnUse" id="paint4_linear_1707_19082" node-id="55" spreadMethod="pad" x1="488.033" x2="504.974" y1="826.434" y2="826.434"><stop offset="0" stop-color="#e967cd"></stop><stop offset="0.16" stop-color="#eb6fc3"></stop><stop offset="0.43" stop-color="#f086a9"></stop><stop offset="0.77" stop-color="#f8aa7e"></stop><stop offset="1" stop-color="#fec55e"></stop></linearGradient><linearGradient gradientUnits="userSpaceOnUse" id="paint5_linear_1707_19082" node-id="61" spreadMethod="pad" x1="764.053" x2="790.958" y1="917.396" y2="917.396"><stop offset="0" stop-color="#e967cd"></stop><stop offset="0.16" stop-color="#eb6fc3"></stop><stop offset="0.43" stop-color="#f086a9"></stop><stop offset="0.77" stop-color="#f8aa7e"></stop><stop offset="1" stop-color="#fec55e"></stop></linearGradient><linearGradient gradientUnits="userSpaceOnUse" id="paint6_linear_1707_19082" node-id="67" spreadMethod="pad" x1="614.072" x2="650.943" y1="1007.36" y2="1007.36"><stop offset="0" stop-color="#e967cd"></stop><stop offset="0.16" stop-color="#eb6fc3"></stop><stop offset="0.43" stop-color="#f086a9"></stop><stop offset="0.77" stop-color="#f8aa7e"></stop><stop offset="1" stop-color="#fec55e"></stop></linearGradient><linearGradient gradientUnits="userSpaceOnUse" id="paint7_linear_1707_19082" node-id="73" spreadMethod="pad" x1="930.033" x2="946.974" y1="1223.43" y2="1223.43"><stop offset="0" stop-color="#e967cd"></stop><stop offset="0.16" stop-color="#eb6fc3"></stop><stop offset="0.43" stop-color="#f086a9"></stop><stop offset="0.77" stop-color="#f8aa7e"></stop><stop offset="1" stop-color="#fec55e"></stop></linearGradient><linearGradient gradientUnits="userSpaceOnUse" id="paint8_linear_1707_19082" node-id="79" spreadMethod="pad" x1="402.563" x2="1109.25" y1="726.631" y2="1192.63"><stop offset="0" stop-color="#8b87ff"></stop><stop offset="1" stop-color="#f68bc6"></stop></linearGradient><linearGradient gradientUnits="userSpaceOnUse" id="paint9_linear_1707_19082" node-id="82" spreadMethod="pad" x1="360.312" x2="1049.85" y1="935.219" y2="553.618"><stop offset="0.02" stop-color="#2575f2"></stop><stop offset="1" stop-color="#6a11c1"></stop></linearGradient><linearGradient gradientUnits="userSpaceOnUse" id="paint10_linear_1707_19082" node-id="85" spreadMethod="pad" x1="87.1753" x2="72.466" y1="319.849" y2="345.443"><stop offset="0.02" stop-color="#2575f2"></stop><stop offset="1" stop-color="#6a11c1"></stop></linearGradient><linearGradient gradientUnits="userSpaceOnUse" id="paint11_linear_1707_19082" node-id="88" spreadMethod="pad" x1="189.729" x2="244.506" y1="447.316" y2="367.621"><stop offset="0.02" stop-color="#f477bb"></stop><stop offset="1" stop-color="#f695cc"></stop></linearGradient><linearGradient gradientUnits="userSpaceOnUse" id="paint12_linear_1707_19082" node-id="91" spreadMethod="pad" x1="32.5452" x2="243.589" y1="546.231" y2="559.447"><stop offset="0" stop-color="#e967cd"></stop><stop offset="0.33" stop-color="#ef83ac"></stop><stop offset="1" stop-color="#fec55e"></stop></linearGradient><linearGradient gradientUnits="userSpaceOnUse" id="paint13_linear_1707_19082" node-id="95" spreadMethod="pad" x1="53.4037" x2="222.145" y1="586.066" y2="596.633"><stop offset="0" stop-color="#b871ff"></stop><stop offset="1" stop-color="#648bff"></stop></linearGradient><linearGradient gradientUnits="userSpaceOnUse" id="paint14_linear_1707_19082" node-id="98" spreadMethod="pad" x1="70.2187" x2="272.646" y1="498.275" y2="510.951"><stop offset="0" stop-color="#e967cd"></stop><stop offset="0.33" stop-color="#ef83ac"></stop><stop offset="1" stop-color="#fec55e"></stop></linearGradient><linearGradient gradientUnits="userSpaceOnUse" id="paint15_linear_1707_19082" node-id="102" spreadMethod="pad" x1="18.2082" x2="289.3" y1="786.398" y2="786.398"><stop offset="0" stop-color="#623fe9"></stop><stop offset="0.1676" stop-color="#6d49e8"></stop><stop offset="0.7004" stop-color="#8c65e5"></stop><stop offset="1" stop-color="#976fe4"></stop></linearGradient></defs><path d="M 397.29 41.16 C 384.60 33.83 374.33 39.68 374.33 54.28 L 374.33 710.85 C 374.33 716.45 378.27 723.27 383.18 726.15 L 1273.18 1239.94 C 1278.05 1242.76 1282.00 1240.48 1282.00 1234.88 L 1282.00 578.31 C 1282.00 563.72 1271.72 545.98 1258.99 538.64 L 397.29 41.16 Z" fill="url(#paint0_linear_1707_19082)" fill-rule="nonzero" node-id="243" stroke="none" target-height="1208.9307" target-width="907.666" target-x="374.334" target-y="33.8293"></path><path d="M 829.32 433.91 L 301.82 129.33 C 289.13 122.00 252.81 131.67 252.81 146.27 L 248.81 811.02 C 248.81 816.62 252.76 823.44 257.67 826.32 L 1153.64 1339.73 C 1158.52 1342.55 1186.53 1328.73 1186.53 1323.13 L 1186.53 666.51 C 1186.53 651.92 1176.25 634.18 1163.58 626.84 L 829.32 433.91 Z" fill="url(#paint1_linear_1707_19082)" fill-rule="nonzero" node-id="245" stroke="none" target-height="1220.552" target-width="937.71606" target-x="248.814" target-y="121.998"></path><g node-id="328"><path d="M 1159.39 956.26 L 1159.39 678.15 C 1159.39 663.55 1149.10 645.81 1136.43 638.47 L 274.73 140.96 C 262.04 133.64 251.77 139.47 251.77 154.08 L 251.77 810.65 C 251.77 816.25 255.71 823.08 260.62 825.95 L 1150.67 1339.83 C 1155.55 1342.64 1159.49 1340.37 1159.49 1334.77 L 1159.49 1039.11" fill="#ffffff" fill-opacity="0.4" fill-rule="nonzero" group-id="1" node-id="249" stroke="none" target-height="1209.002" target-width="907.716" target-x="251.774" target-y="133.638"></path></g><path d="M 598.83 440.67 L 1159.39 764.31 L 1159.39 678.86 C 1159.39 664.26 1149.10 646.52 1136.43 639.18 L 274.73 141.67 C 262.04 134.35 251.77 140.20 251.77 154.79 L 251.77 240.24" fill="url(#paint2_linear_1707_19082)" fill-rule="nonzero" node-id="252" stroke="none" target-height="629.965" target-width="907.616" target-x="251.774" target-y="134.349"></path><path d="M 849.77 549.87 C 846.29 549.79 842.89 548.79 839.92 546.97 C 834.21 543.30 829.46 538.33 826.06 532.45 C 822.66 526.57 820.72 519.97 820.39 513.19 C 820.20 510.28 820.77 507.36 822.05 504.74 C 823.33 502.12 825.27 499.87 827.69 498.24 C 830.31 496.96 833.22 496.40 836.13 496.61 C 839.03 496.83 841.83 497.81 844.23 499.47 C 849.93 503.11 854.68 508.08 858.06 513.94 C 861.45 519.80 863.37 526.40 863.67 533.16 C 863.89 536.07 863.35 538.98 862.08 541.61 C 860.81 544.23 858.87 546.48 856.46 548.11 C 854.42 549.27 852.12 549.88 849.77 549.87 Z M 834.38 505.27 C 833.58 505.29 832.79 505.50 832.09 505.89 C 831.03 506.76 830.20 507.88 829.69 509.16 C 829.18 510.44 829.01 511.83 829.19 513.19 C 829.48 518.46 831.00 523.60 833.62 528.18 C 836.25 532.76 839.91 536.67 844.32 539.58 C 845.41 540.40 846.69 540.94 848.04 541.14 C 849.40 541.34 850.78 541.20 852.06 540.72 C 853.10 539.83 853.89 538.70 854.39 537.43 C 854.88 536.15 855.04 534.78 854.88 533.42 C 854.60 528.15 853.10 523.02 850.49 518.44 C 847.88 513.86 844.23 509.95 839.83 507.03 C 838.19 506.00 836.32 505.39 834.38 505.27 Z" fill="#ffffff" fill-rule="nonzero" node-id="254" stroke="none" target-height="53.477997" target-width="43.698975" target-x="820.195" target-y="496.397"></path><path d="M 863.15 548.48 L 855.44 552.72 L 864.29 568.83 L 872.00 564.60 L 863.15 548.48 Z" fill="#ffffff" fill-rule="nonzero" node-id="256" stroke="none" target-height="20.350037" target-width="16.562012" target-x="855.438" target-y="548.483"></path><path d="M 541.10 333.97 C 541.10 330.88 544.45 328.96 547.12 330.52 L 776.02 464.31 C 777.25 465.03 778.00 466.34 778.00 467.76 L 778.00 506.65 C 778.00 509.74 774.65 511.66 771.98 510.11 L 543.08 376.31 C 541.85 375.60 541.10 374.28 541.10 372.86 L 541.10 333.97 Z" fill="#ffffff" fill-rule="nonzero" node-id="258" stroke="none" target-height="182.70499" target-width="236.90399" target-x="541.096" target-y="328.959"></path><path d="M 335.01 231.66 C 335.01 237.75 339.32 245.17 344.62 248.24 C 349.92 251.31 354.23 248.85 354.23 242.78 C 354.23 236.70 349.93 229.27 344.62 226.21 C 339.31 223.15 335.01 225.57 335.01 231.66 Z" fill="#ffffff" fill-rule="nonzero" node-id="260" stroke="none" target-height="28.165009" target-width="19.21399" target-x="335.013" target-y="223.146"></path><path d="M 310.01 217.22 C 310.01 223.31 314.31 230.73 319.61 233.80 C 324.91 236.87 329.23 234.41 329.23 228.34 C 329.23 222.26 324.93 214.82 319.61 211.76 C 314.30 208.70 310.01 211.13 310.01 217.22 Z" fill="#ffffff" fill-rule="nonzero" node-id="262" stroke="none" target-height="28.175995" target-width="19.225006" target-x="310.007" target-y="208.698"></path><path d="M 285.00 202.78 C 285.00 208.88 289.31 216.31 294.61 219.37 C 299.91 222.43 304.23 219.98 304.23 213.90 C 304.23 207.82 299.92 200.38 294.61 197.32 C 289.30 194.26 285.00 196.70 285.00 202.78 Z" fill="#ffffff" fill-rule="nonzero" node-id="264" stroke="none" target-height="28.165009" target-width="19.225006" target-x="285" target-y="194.26"></path><path d="M 1114.75 858.06 L 409.01 451.42 C 399.41 445.74 391.09 453.00 391.09 458.50 L 391.09 469.74 L 391.09 479.43 L 392.21 977.93 C 392.21 991.37 401.17 1003.69 413.50 1010.41 L 1089.50 1415.50 L 1113.63 1415.93 L 1119.24 1414.81 C 1129.32 1411.45 1136.04 1402.49 1136.04 1392.41 L 1136.04 891.67 C 1134.92 878.23 1127.08 864.78 1114.75 858.06 Z" fill="#ffffff" fill-opacity="0.6" fill-rule="nonzero" node-id="266" stroke="none" target-height="970.1891" target-width="744.94904" target-x="391.091" target-y="445.741"></path><path d="M 1068.35 907.32 L 362.61 500.68 C 357.00 497.32 351.40 497.32 345.80 499.56 L 337.96 502.92 L 344.68 528.69 L 345.80 1027.19 C 345.80 1040.63 354.76 1052.95 367.09 1059.67 L 1047.06 1442.79 L 1067.23 1465.19 L 1072.83 1464.07 C 1082.91 1460.71 1089.63 1451.75 1089.63 1441.67 L 1089.63 940.93 C 1088.51 927.49 1080.67 914.04 1068.35 907.32 Z" fill="url(#paint3_linear_1707_19082)" fill-rule="nonzero" node-id="268" stroke="none" target-height="967.8689" target-width="751.669" target-x="337.961" target-y="497.321"></path><path d="M 1057.15 912.92 L 349.16 505.16 C 340.20 499.56 329.00 506.28 329.00 516.36 L 329.00 1019.34 C 329.00 1032.79 336.84 1046.23 348.04 1052.95 L 1056.02 1464.07 C 1064.99 1469.67 1076.19 1462.95 1076.19 1452.87 L 1076.19 946.53 C 1076.19 933.09 1068.35 919.64 1057.15 912.92 Z" fill="#ffffff" fill-rule="nonzero" node-id="270" stroke="none" target-height="970.109" target-width="747.18994" target-x="329" target-y="499.561"></path><path d="M 433.81 647.26 C 433.81 652.11 428.57 655.16 424.36 652.76 L 364.20 618.51 C 362.22 617.39 361.00 615.29 361.00 613.01 L 361.00 613.01 C 361.00 608.16 366.24 605.12 370.46 607.52 L 430.62 641.76 C 432.59 642.88 433.81 644.99 433.81 647.26 L 433.81 647.26 Z" fill="#dfe6fd" fill-rule="nonzero" node-id="272" stroke="none" target-height="50.044983" target-width="72.815" target-x="361" target-y="605.115"></path><path d="M 494.31 730.94 C 494.31 735.81 489.05 738.86 484.83 736.44 L 364.41 667.63 C 362.30 666.43 361.00 664.18 361.00 661.75 L 361.00 661.75 C 361.00 656.53 366.65 653.28 371.17 655.90 L 491.15 725.47 C 493.10 726.60 494.31 728.69 494.31 730.94 L 494.31 730.94 Z" fill="#dfe6fd" fill-rule="nonzero" node-id="274" stroke="none" target-height="85.578" target-width="133.307" target-x="361" target-y="653.278"></path><path d="M 494.31 776.80 C 494.31 781.66 489.05 784.71 484.83 782.30 L 364.41 713.49 C 362.30 712.28 361.00 710.04 361.00 707.61 L 361.00 707.61 C 361.00 702.39 366.65 699.14 371.17 701.75 L 491.15 771.32 C 493.10 772.46 494.31 774.54 494.31 776.80 L 494.31 776.80 Z" fill="#dfe6fd" fill-rule="nonzero" node-id="276" stroke="none" target-height="85.578" target-width="133.307" target-x="361" target-y="699.136"></path><path d="M 497.00 817.12 C 496.10 816.48 495.04 816.10 493.94 816.02 C 492.83 815.93 491.72 816.15 490.73 816.64 C 489.80 817.24 489.06 818.08 488.58 819.06 C 488.11 820.04 487.92 821.14 488.03 822.22 C 488.16 824.95 488.95 827.61 490.34 829.99 C 491.73 832.36 493.67 834.38 496.00 835.87 C 497.16 836.56 498.47 836.95 499.82 837.00 C 500.68 837.01 501.53 836.79 502.28 836.38 C 503.20 835.76 503.93 834.92 504.40 833.93 C 504.88 832.95 505.08 831.85 504.97 830.77 C 504.83 828.04 504.03 825.38 502.65 823.01 C 501.26 820.64 499.33 818.62 497.00 817.12 Z" fill="url(#paint4_linear_1707_19082)" fill-rule="nonzero" node-id="278" stroke="none" target-height="21.074951" target-width="17.158997" target-x="487.917" target-y="815.934"></path><path d="M 778.30 902.75 C 776.87 901.76 775.18 901.16 773.43 901.03 C 771.67 900.90 769.91 901.23 768.34 902.00 C 766.86 902.95 765.68 904.26 764.93 905.81 C 764.17 907.35 763.87 909.07 764.05 910.77 C 764.26 915.07 765.52 919.25 767.72 922.98 C 769.92 926.71 773.00 929.88 776.71 932.23 C 778.54 933.31 780.63 933.92 782.78 934.00 C 784.14 934.01 785.49 933.68 786.67 933.02 C 788.13 932.05 789.30 930.73 790.05 929.18 C 790.81 927.63 791.12 925.91 790.96 924.21 C 790.73 919.92 789.46 915.75 787.26 912.02 C 785.07 908.29 782.00 905.12 778.30 902.75 Z" fill="url(#paint5_linear_1707_19082)" fill-rule="nonzero" node-id="280" stroke="none" target-height="33.11798" target-width="27.252014" target-x="763.868" target-y="900.896"></path><path d="M 633.60 987.39 C 631.63 986.03 629.32 985.22 626.92 985.04 C 624.51 984.86 622.10 985.32 619.94 986.37 C 617.92 987.65 616.30 989.45 615.27 991.56 C 614.23 993.66 613.82 996.01 614.07 998.33 C 614.36 1004.18 616.08 1009.88 619.09 1014.97 C 622.11 1020.05 626.33 1024.38 631.42 1027.58 C 633.93 1029.06 636.79 1029.89 639.73 1030.00 C 641.60 1030.02 643.45 1029.56 645.07 1028.66 C 647.07 1027.35 648.67 1025.54 649.71 1023.42 C 650.74 1021.31 651.16 1018.97 650.94 1016.64 C 650.63 1010.80 648.89 1005.11 645.88 1000.03 C 642.87 994.94 638.66 990.62 633.60 987.39 Z" fill="url(#paint6_linear_1707_19082)" fill-rule="nonzero" node-id="282" stroke="none" target-height="45.16205" target-width="37.34601" target-x="613.819" target-y="984.858"></path><path d="M 939.00 1214.11 C 938.10 1213.48 937.04 1213.10 935.93 1213.02 C 934.83 1212.93 933.72 1213.15 932.73 1213.64 C 931.80 1214.24 931.06 1215.08 930.58 1216.06 C 930.11 1217.04 929.92 1218.14 930.03 1219.22 C 930.16 1221.95 930.95 1224.61 932.34 1226.99 C 933.73 1229.36 935.67 1231.38 938.00 1232.87 C 939.16 1233.56 940.47 1233.95 941.82 1234.00 C 942.68 1234.01 943.53 1233.79 944.28 1233.38 C 945.20 1232.76 945.93 1231.92 946.40 1230.93 C 946.88 1229.95 947.08 1228.85 946.97 1227.77 C 946.83 1225.04 946.03 1222.38 944.65 1220.01 C 943.26 1217.64 941.33 1215.62 939.00 1214.11 Z" fill="url(#paint7_linear_1707_19082)" fill-rule="nonzero" node-id="284" stroke="none" target-height="21.079956" target-width="17.158997" target-x="929.917" target-y="1212.93"></path><path d="M 329.00 1019.35 L 329.00 779.62 C 344.68 807.62 364.85 827.79 399.57 833.39 C 433.18 837.87 467.91 833.39 494.79 858.03 C 536.24 897.24 544.08 955.49 568.73 1003.66 C 584.41 1033.91 611.30 1064.15 647.14 1068.63 C 682.99 1073.12 716.60 1050.71 751.32 1049.59 C 787.17 1048.47 819.66 1064.15 843.18 1092.16 C 876.79 1131.37 871.19 1177.30 887.99 1223.23 C 913.76 1293.80 985.45 1261.31 1041.46 1272.52 C 1054.90 1274.76 1066.11 1281.48 1076.19 1291.56 L 1076.19 1453.99 C 1076.19 1464.07 1064.99 1470.79 1056.02 1465.19 L 348.04 1054.07 C 335.72 1046.23 329.00 1033.91 329.00 1019.35 Z" fill="url(#paint8_linear_1707_19082)" fill-rule="nonzero" node-id="286" stroke="none" target-height="691.17303" target-width="747.18994" target-x="329" target-y="779.617"></path><path d="M 1057.15 912.92 L 349.16 505.16 C 340.20 499.56 329.00 506.28 329.00 516.36 L 329.00 542.13 L 1076.19 972.29 L 1076.19 946.53 C 1076.19 933.09 1068.35 919.64 1057.15 912.92 Z" fill="url(#paint9_linear_1707_19082)" fill-rule="nonzero" node-id="288" stroke="none" target-height="472.73398" target-width="747.18994" target-x="329" target-y="499.561"></path><path d="M 391.00 554.99 C 391.00 558.58 393.54 562.95 396.66 564.76 C 399.79 566.57 402.32 565.12 402.32 561.54 C 402.32 557.96 399.79 553.58 396.66 551.78 C 393.53 549.98 391.00 551.41 391.00 554.99 Z" fill="#ffffff" fill-rule="nonzero" node-id="290" stroke="none" target-height="16.596985" target-width="11.321991" target-x="391" target-y="549.976"></path><path d="M 372.00 544.00 C 372.00 547.59 374.54 551.96 377.66 553.77 C 380.79 555.58 383.33 554.13 383.33 550.55 C 383.33 546.97 380.79 542.58 377.66 540.78 C 374.53 538.98 372.00 540.41 372.00 544.00 Z" fill="#ffffff" fill-rule="nonzero" node-id="292" stroke="none" target-height="16.603027" target-width="11.32901" target-x="372" target-y="538.975"></path><path d="M 354.00 532.00 C 354.00 535.59 356.54 539.97 359.66 541.77 C 362.79 543.57 365.33 542.13 365.33 538.55 C 365.33 534.97 362.79 530.58 359.66 528.78 C 356.53 526.98 354.00 528.41 354.00 532.00 Z" fill="#ffffff" fill-rule="nonzero" node-id="294" stroke="none" target-height="16.597046" target-width="11.32901" target-x="354" target-y="526.975"></path><path d="M 718.10 826.75 L 1028.07 1005.97 C 1030.99 1007.60 1033.36 1005.80 1033.36 1001.95 C 1033.36 998.06 1030.99 993.53 1028.07 991.85 L 718.10 812.62 C 715.17 810.94 712.81 812.78 712.81 816.63 C 712.81 820.53 715.17 825.05 718.10 826.75 Z M 726.10 869.32 L 1028.07 1043.55 C 1030.99 1045.24 1033.36 1043.44 1033.36 1039.55 C 1033.36 1035.65 1030.99 1031.12 1028.07 1029.44 L 726.10 855.21 C 723.17 853.52 720.81 855.36 720.81 859.21 C 720.81 863.11 723.17 867.64 726.10 869.32 Z M 1024.07 1080.77 L 826.29 967.74 C 823.36 966.06 821.00 961.53 821.00 957.62 C 821.00 953.77 823.36 951.94 826.29 953.63 L 1024.07 1066.65 C 1026.99 1068.35 1029.36 1072.87 1029.36 1076.77 C 1029.36 1080.67 1026.99 1082.45 1024.07 1080.77 Z M 759.10 969.78 L 1028.07 1120.00 C 1030.99 1121.70 1033.36 1119.90 1033.36 1116.01 C 1033.36 1112.11 1030.99 1107.58 1028.07 1105.90 L 759.10 955.67 C 756.17 953.98 753.81 955.81 753.81 959.66 C 753.81 963.57 756.17 968.10 759.10 969.78 Z" fill="#dfe6fd" fill-rule="evenodd" node-id="296" stroke="none" target-height="310.75598" target-width="320.55" target-x="712.81" target-y="810.944"></path><path d="M 78.37 202.81 C 71.07 198.58 65.00 202.01 65.00 210.55 L 65.00 543.73 C 65.28 548.36 66.64 552.86 68.96 556.88 C 71.28 560.89 74.50 564.31 78.37 566.87 L 315.35 714.00 C 322.74 718.23 328.72 714.79 328.72 706.26 L 328.72 372.72 C 328.46 368.07 327.12 363.55 324.80 359.52 C 322.48 355.49 319.24 352.05 315.35 349.50 L 78.37 202.81 Z" fill="#ffffff" fill-opacity="0.6" fill-rule="nonzero" node-id="298" stroke="none" target-height="519.64294" target-width="263.71777" target-x="65.0002" target-y="198.582"></path><path d="M 36.37 231.81 C 29.07 227.58 23.00 231.01 23.00 239.55 L 23.00 572.73 C 23.28 577.36 24.64 581.86 26.96 585.88 C 29.28 589.89 32.50 593.31 36.37 595.87 L 273.35 743.00 C 280.74 747.23 286.72 743.79 286.72 735.26 L 286.72 401.72 C 286.46 397.07 285.12 392.55 282.80 388.52 C 280.48 384.49 277.24 381.05 273.35 378.50 L 36.37 231.81 Z" fill="#ffffff" fill-rule="nonzero" node-id="300" stroke="none" target-height="519.64294" target-width="263.71777" target-x="23.0002" target-y="227.582"></path><path d="M 138.12 387.94 L 57.84 341.60 C 50.78 337.52 45.00 326.58 45.00 317.21 C 45.00 307.79 50.73 303.46 57.84 307.53 L 138.12 353.89 C 145.18 357.97 150.96 368.91 150.96 378.28 C 150.91 387.70 145.23 392.03 138.12 387.94 Z" fill="url(#paint10_linear_1707_19082)" fill-rule="nonzero" node-id="302" stroke="none" target-height="88.565" target-width="105.95991" target-x="45.0001" target-y="303.461"></path><path d="M 252.81 454.16 L 172.53 407.81 C 165.47 403.73 159.69 392.80 159.69 383.42 C 159.69 374.00 165.41 369.68 172.53 373.76 L 252.81 420.10 C 259.87 424.18 265.65 435.12 265.65 444.49 C 265.60 453.91 259.87 458.24 252.81 454.16 Z" fill="url(#paint11_linear_1707_19082)" fill-rule="nonzero" node-id="304" stroke="none" target-height="88.565" target-width="105.95999" target-x="159.689" target-y="369.675"></path><path d="M 39.75 431.10 C 40.06 426.30 43.58 424.52 47.59 427.18 L 220.17 541.80 C 222.28 543.37 224.00 545.41 225.18 547.77 C 226.36 550.12 226.97 552.72 226.96 555.35 L 236.38 674.52 C 236.08 679.32 232.62 681.11 228.55 678.44 L 53.88 567.10 C 51.90 565.07 50.38 562.64 49.42 559.97 C 48.46 557.30 48.08 554.46 48.32 551.63 L 39.75 431.10 Z" fill="url(#paint12_linear_1707_19082)" fill-opacity="0.26" fill-rule="nonzero" group-id="2" node-id="308" stroke="none" target-height="256.59" target-width="196.6281" target-x="39.7549" target-y="424.517"></path><path d="M 107.83 584.50 C 108.26 591.88 100.15 596.65 93.91 592.69 L 93.91 592.69 C 91.44 591.11 89.88 588.44 89.72 585.51 L 87.00 534.18 C 86.60 526.76 94.92 522.13 101.02 526.38 L 101.02 526.38 C 103.26 527.95 104.67 530.46 104.83 533.19 L 107.83 584.50 Z M 66.59 575.11 C 72.80 579.05 80.85 574.19 80.25 566.85 L 77.05 528.14 C 76.83 525.48 75.42 523.07 73.22 521.58 L 73.22 521.58 C 67.11 517.43 58.93 522.18 59.49 529.54 L 62.48 568.27 C 62.70 571.07 64.22 573.60 66.59 575.11 L 66.59 575.11 Z M 134.49 597.24 C 134.27 594.56 132.85 592.13 130.63 590.62 L 130.63 590.62 C 124.50 586.46 116.28 591.20 116.80 598.58 L 117.10 602.96 C 117.30 605.77 118.81 608.32 121.19 609.84 L 121.19 609.84 C 127.39 613.80 135.44 608.95 134.84 601.62 L 134.49 597.24 Z M 159.14 578.90 C 158.94 576.23 157.53 573.79 155.31 572.28 L 155.31 572.28 C 149.22 568.13 141.03 572.85 141.55 580.20 L 144.42 620.31 C 144.62 623.12 146.14 625.68 148.52 627.20 L 148.52 627.20 C 154.72 631.15 162.77 626.32 162.21 618.99 L 159.14 578.90 Z M 216.25 651.59 C 216.04 648.91 214.62 646.48 212.40 644.98 L 212.40 644.98 C 206.28 640.82 198.06 645.55 198.58 652.93 L 198.72 654.96 C 198.92 657.76 200.44 660.31 202.81 661.82 L 202.81 661.82 C 208.99 665.76 217.02 660.92 216.42 653.61 L 216.25 651.59 Z M 185.66 601.06 C 185.44 598.44 184.04 596.05 181.87 594.57 L 181.87 594.57 C 175.78 590.43 167.62 595.18 168.20 602.51 L 171.01 637.63 C 171.23 640.40 172.75 642.92 175.10 644.41 L 175.10 644.41 C 181.31 648.36 189.34 643.48 188.71 636.15 L 185.66 601.06 Z" fill="url(#paint13_linear_1707_19082)" fill-rule="nonzero" node-id="311" stroke="none" target-height="148.32898" target-width="158.09149" target-x="58.9255" target-y="517.432"></path><path d="M 77.12 388.13 C 77.40 383.56 80.80 381.90 84.65 384.43 L 250.33 494.05 C 252.35 495.57 253.99 497.54 255.13 499.80 C 256.26 502.06 256.86 504.56 256.87 507.09 L 265.93 621.05 C 265.64 625.67 262.30 627.34 258.45 624.81 L 90.87 518.24 C 88.97 516.31 87.50 513.99 86.57 511.44 C 85.64 508.88 85.28 506.16 85.50 503.46 L 77.12 388.13 Z" fill="url(#paint14_linear_1707_19082)" fill-opacity="0.26" fill-rule="nonzero" group-id="3" node-id="315" stroke="none" target-height="245.44699" target-width="188.81161" target-x="77.1164" target-y="381.897"></path><path d="M 278.45 777.89 L 35.26 638.38 C 32.00 636.21 27.11 636.75 23.86 638.92 L 17.89 642.73 L 21.68 778.98 C 21.68 786.58 24.40 789.84 31.46 793.64 L 124.83 845.75 L 185.62 883.75 L 272.48 935.86 L 281.71 935.32 C 286.05 934.78 289.31 931.52 289.31 927.18 L 289.31 796.35 C 289.31 788.75 285.51 781.69 278.45 777.89 Z" fill="url(#paint15_linear_1707_19082)" fill-rule="nonzero" node-id="318" stroke="none" target-height="299.651" target-width="271.42282" target-x="17.8852" target-y="636.211"></path><path d="M 13.00 652.50 L 13.00 775.18 C 13.00 782.78 16.80 789.84 23.86 793.64 L 119.94 849.01 L 141.66 894.06 C 143.28 900.03 150.34 903.29 155.77 900.58 L 175.85 881.58 L 264.34 934.24 C 272.48 939.12 282.25 933.15 282.25 923.92 L 282.25 799.61 C 282.25 792.01 278.45 784.95 271.39 781.15 L 30.37 642.18 C 23.31 637.30 13.00 643.27 13.00 652.50 Z" fill="#ffffff" fill-rule="nonzero" node-id="320" stroke="none" target-height="301.82202" target-width="269.252" target-x="13" target-y="637.298"></path><path d="M 256.74 798.25 C 256.74 803.68 250.86 807.07 246.16 804.36 L 49.64 690.90 C 47.46 689.64 46.11 687.31 46.11 684.79 L 46.11 684.79 C 46.11 679.37 51.99 675.97 56.69 678.69 L 253.21 792.14 C 255.39 793.40 256.74 795.73 256.74 798.25 L 256.74 798.25 Z" fill="#dfe6fd" fill-rule="nonzero" node-id="322" stroke="none" target-height="131.09698" target-width="210.6242" target-x="46.1138" target-y="675.974"></path><path d="M 256.74 839.91 C 256.74 845.16 251.06 848.44 246.51 845.82 L 49.52 732.09 C 47.41 730.87 46.11 728.62 46.11 726.19 L 46.11 726.19 C 46.11 720.94 51.79 717.66 56.34 720.28 L 253.33 834.01 C 255.44 835.23 256.74 837.48 256.74 839.91 L 256.74 839.91 Z" fill="#dfe6fd" fill-rule="nonzero" node-id="324" stroke="none" target-height="130.781" target-width="210.6242" target-x="46.1138" target-y="717.66"></path><path d="M 148.17 821.59 C 148.17 827.02 142.29 830.40 137.60 827.68 L 49.52 776.61 C 47.41 775.39 46.11 773.14 46.11 770.70 L 46.11 770.70 C 46.11 765.45 51.80 762.16 56.35 764.77 L 144.64 815.49 C 146.82 816.75 148.17 819.08 148.17 821.59 L 148.17 821.59 Z" fill="#dfe6fd" fill-rule="nonzero" node-id="326" stroke="none" target-height="68.24298" target-width="102.05521" target-x="46.1138" target-y="762.158"></path></svg>