<?xml version="1.0" encoding="UTF-8" ?>
<!DOCTYPE svg PUBLIC "-//W3C//DTD SVG 1.1//EN" "http://www.w3.org/Graphics/SVG/1.1/DTD/svg11.dtd">
<svg width="960pt" height="450pt" viewBox="0 0 960 450" version="1.1" xmlns="http://www.w3.org/2000/svg">
<g id="#b6dbe4ff">
<path fill="#b6dbe4" opacity="1.00" d=" M 0.00 0.00 L 201.85 0.00 C 201.82 7.16 203.10 14.66 207.40 20.57 C 210.85 25.40 216.55 27.77 221.84 30.00 C 205.33 36.57 193.20 51.33 175.65 55.58 C 161.84 59.18 147.84 54.71 134.11 53.09 C 126.50 52.20 118.47 52.19 111.34 55.37 C 101.06 59.65 93.40 68.01 85.06 75.09 C 78.03 81.38 70.08 86.77 61.26 90.22 C 48.15 95.32 33.77 96.05 19.89 94.78 C 13.20 94.09 6.45 93.39 0.00 91.38 L 0.00 0.00 Z" />
<path fill="#b6dbe4" opacity="1.00" d=" M 527.37 350.48 C 535.42 348.30 544.27 354.76 544.59 363.10 C 545.34 370.74 538.67 378.11 530.97 378.03 C 522.23 378.65 514.76 369.44 516.95 360.99 C 518.06 355.87 522.27 351.65 527.37 350.48 Z" />
<path fill="#b6dbe4" opacity="1.00" d=" M 572.27 363.34 C 585.18 361.25 598.96 363.73 609.95 370.95 C 619.20 377.02 626.25 386.83 627.82 397.91 C 629.01 405.04 627.72 412.64 623.91 418.82 C 617.11 430.31 599.25 434.77 589.31 424.78 C 580.61 416.78 572.93 407.78 564.85 399.18 C 560.70 394.32 555.52 390.13 552.68 384.29 C 550.45 379.72 552.36 374.23 555.79 370.83 C 560.17 366.43 566.29 364.40 572.27 363.34 Z" />
<path fill="#b6dbe4" opacity="1.00" d=" M 842.64 396.57 C 858.63 392.81 868.88 378.97 881.40 369.49 C 896.74 385.49 917.11 395.48 937.50 403.46 C 937.42 411.17 939.50 419.30 945.37 424.66 C 949.19 428.71 954.67 430.21 960.00 430.98 L 960.00 450.00 L 645.33 450.00 C 645.88 445.97 645.31 441.73 646.92 437.91 C 650.14 429.66 657.61 423.60 665.87 420.81 C 688.29 413.22 711.38 427.18 733.96 421.03 C 746.34 417.93 756.09 409.28 766.56 402.50 C 774.73 397.17 784.15 393.18 794.04 393.11 C 810.37 392.46 826.33 399.85 842.64 396.57 Z" />
<path fill="#b6dbe4" opacity="1.00" d=" M 944.77 405.97 C 949.88 406.96 954.94 408.21 960.00 409.47 L 960.00 423.22 C 956.71 422.38 953.15 421.74 950.63 419.26 C 946.71 416.01 944.96 410.93 944.77 405.97 Z" />
</g>
<g id="#caceebff">
<path fill="#caceeb" opacity="1.00" d=" M 201.85 0.00 L 416.96 0.00 C 419.01 6.86 418.69 14.63 414.83 20.81 C 408.62 31.13 397.17 37.05 385.76 39.72 C 372.60 42.93 358.90 40.05 345.67 42.58 C 328.57 45.75 314.61 58.14 297.12 59.90 C 285.79 61.48 274.58 57.08 265.54 50.52 C 258.43 45.55 251.83 39.64 243.70 36.34 C 236.64 33.50 229.14 32.04 221.84 30.00 C 216.55 27.77 210.85 25.40 207.40 20.57 C 203.10 14.66 201.82 7.16 201.85 0.00 Z" />
<path fill="#caceeb" opacity="1.00" d=" M 351.36 47.43 C 360.70 43.86 371.97 50.58 373.48 60.40 C 375.24 69.17 368.94 78.55 360.07 80.00 C 351.05 82.11 341.29 75.23 340.15 66.06 C 338.74 58.17 343.75 49.88 351.36 47.43 Z" />
<path fill="#caceeb" opacity="1.00" d=" M 428.37 414.06 C 451.79 391.93 485.53 379.66 517.64 385.48 C 535.42 388.99 552.69 397.44 564.78 411.19 C 574.28 421.85 579.94 435.75 580.72 450.00 L 543.05 450.00 C 542.18 443.30 540.27 436.53 535.69 431.36 C 522.45 415.58 496.45 413.75 480.64 426.69 C 473.53 432.25 468.97 440.92 468.81 450.00 L 444.60 450.00 C 444.84 436.31 437.85 423.53 428.37 414.06 Z" />
<path fill="#caceeb" opacity="1.00" d=" M 488.28 434.29 C 498.32 425.97 514.38 426.16 524.05 434.99 C 528.42 438.75 530.69 444.34 531.19 450.00 L 480.82 450.00 C 480.29 443.88 483.73 438.12 488.28 434.29 Z" />
</g>
<g id="#fff6edff">
<path fill="#fff6ed" opacity="1.00" d=" M 416.96 0.00 L 516.69 0.00 C 516.58 39.82 529.18 79.45 551.86 112.14 C 573.19 143.10 602.96 168.10 636.94 184.16 C 668.94 199.43 704.60 206.88 740.04 205.88 C 780.87 205.05 821.43 192.84 855.84 170.82 C 882.51 153.83 905.46 130.94 922.15 104.05 C 941.51 73.03 952.10 36.59 952.02 0.00 L 960.00 0.00 L 960.00 127.84 C 951.80 131.02 943.38 133.99 936.18 139.18 C 922.90 147.90 912.47 161.56 909.42 177.33 C 906.47 191.27 909.36 205.87 915.34 218.63 C 919.78 227.97 920.88 238.93 917.77 248.86 C 913.35 263.45 903.63 275.51 894.63 287.52 C 885.08 300.12 874.77 312.81 870.10 328.19 C 867.37 337.03 867.64 346.88 871.72 355.28 C 874.13 360.51 877.68 365.12 881.40 369.49 C 868.88 378.97 858.63 392.81 842.64 396.57 C 826.33 399.85 810.37 392.46 794.04 393.11 C 784.15 393.18 774.73 397.17 766.56 402.50 C 756.09 409.28 746.34 417.93 733.96 421.03 C 711.38 427.18 688.29 413.22 665.87 420.81 C 657.61 423.60 650.14 429.66 646.92 437.91 C 645.31 441.73 645.88 445.97 645.33 450.00 L 580.72 450.00 C 579.94 435.75 574.28 421.85 564.78 411.19 C 552.69 397.44 535.42 388.99 517.64 385.48 C 485.53 379.66 451.79 391.93 428.37 414.06 C 417.60 403.42 403.53 396.69 388.93 393.16 C 358.85 385.55 327.55 387.89 296.89 389.18 C 299.61 370.97 297.49 351.96 289.86 335.14 C 280.20 313.08 262.40 294.64 240.66 284.25 C 217.00 272.18 188.87 269.64 163.21 276.16 C 151.12 278.91 139.99 284.61 129.36 290.84 C 121.01 276.71 111.00 263.02 97.22 253.75 C 76.38 239.65 50.84 234.17 25.99 233.67 C 17.31 233.53 8.62 234.13 0.00 235.16 L 0.00 91.38 C 6.45 93.39 13.20 94.09 19.89 94.78 C 33.77 96.05 48.15 95.32 61.26 90.22 C 70.08 86.77 78.03 81.38 85.06 75.09 C 93.40 68.01 101.06 59.65 111.34 55.37 C 118.47 52.19 126.50 52.20 134.11 53.09 C 147.84 54.71 161.84 59.18 175.65 55.58 C 193.20 51.33 205.33 36.57 221.84 30.00 C 229.14 32.04 236.64 33.50 243.70 36.34 C 251.83 39.64 258.43 45.55 265.54 50.52 C 274.58 57.08 285.79 61.48 297.12 59.90 C 314.61 58.14 328.57 45.75 345.67 42.58 C 358.90 40.05 372.60 42.93 385.76 39.72 C 397.17 37.05 408.62 31.13 414.83 20.81 C 418.69 14.63 419.01 6.86 416.96 0.00 M 351.36 47.43 C 343.75 49.88 338.74 58.17 340.15 66.06 C 341.29 75.23 351.05 82.11 360.07 80.00 C 368.94 78.55 375.24 69.17 373.48 60.40 C 371.97 50.58 360.70 43.86 351.36 47.43 M 527.37 350.48 C 522.27 351.65 518.06 355.87 516.95 360.99 C 514.76 369.44 522.23 378.65 530.97 378.03 C 538.67 378.11 545.34 370.74 544.59 363.10 C 544.27 354.76 535.42 348.30 527.37 350.48 M 572.27 363.34 C 566.29 364.40 560.17 366.43 555.79 370.83 C 552.36 374.23 550.45 379.72 552.68 384.29 C 555.52 390.13 560.70 394.32 564.85 399.18 C 572.93 407.78 580.61 416.78 589.31 424.78 C 599.25 434.77 617.11 430.31 623.91 418.82 C 627.72 412.64 629.01 405.04 627.82 397.91 C 626.25 386.83 619.20 377.02 609.95 370.95 C 598.96 363.73 585.18 361.25 572.27 363.34 Z" />
<path fill="#fff6ed" opacity="1.00" d=" M 585.86 0.00 L 883.34 0.00 C 883.34 9.79 882.30 19.57 880.15 29.12 C 873.12 61.16 853.78 89.97 827.76 109.75 C 799.27 131.65 762.82 142.63 726.99 140.81 C 691.86 139.34 657.35 125.40 631.29 101.75 C 606.64 79.44 589.76 48.27 586.24 15.06 C 585.85 10.06 584.88 4.99 585.86 0.00 Z" />
<path fill="#fff6ed" opacity="1.00" d=" M 480.64 426.69 C 496.45 413.75 522.45 415.58 535.69 431.36 C 540.27 436.53 542.18 443.30 543.05 450.00 L 531.19 450.00 C 530.69 444.34 528.42 438.75 524.05 434.99 C 514.38 426.16 498.32 425.97 488.28 434.29 C 483.73 438.12 480.29 443.88 480.82 450.00 L 468.81 450.00 C 468.97 440.92 473.53 432.25 480.64 426.69 Z" />
</g>
<g id="#f4bdc2ff">
<path fill="#f4bdc2" opacity="1.00" d=" M 516.69 0.00 L 585.86 0.00 C 584.88 4.99 585.85 10.06 586.24 15.06 C 589.76 48.27 606.64 79.44 631.29 101.75 C 657.35 125.40 691.86 139.34 726.99 140.81 C 762.82 142.63 799.27 131.65 827.76 109.75 C 853.78 89.97 873.12 61.16 880.15 29.12 C 882.30 19.57 883.34 9.79 883.34 0.00 L 952.02 0.00 C 952.10 36.59 941.51 73.03 922.15 104.05 C 905.46 130.94 882.51 153.83 855.84 170.82 C 821.43 192.84 780.87 205.05 740.04 205.88 C 704.60 206.88 668.94 199.43 636.94 184.16 C 602.96 168.10 573.19 143.10 551.86 112.14 C 529.18 79.45 516.58 39.82 516.69 0.00 Z" />
<path fill="#f4bdc2" opacity="1.00" d=" M 0.00 235.16 C 8.62 234.13 17.31 233.53 25.99 233.67 C 50.84 234.17 76.38 239.65 97.22 253.75 C 111.00 263.02 121.01 276.71 129.36 290.84 C 111.61 303.08 97.05 320.38 89.80 340.83 C 81.89 362.27 81.98 386.57 90.15 407.92 C 96.20 424.31 106.92 438.84 120.31 450.00 L 0.00 450.00 L 0.00 235.16 Z" />
<path fill="#f4bdc2" opacity="1.00" d=" M 296.89 389.18 C 327.55 387.89 358.85 385.55 388.93 393.16 C 403.53 396.69 417.60 403.42 428.37 414.06 C 437.85 423.53 444.84 436.31 444.60 450.00 L 261.80 450.00 C 280.17 434.70 293.18 412.88 296.89 389.18 Z" />
</g>
<g id="#fadedaff">
<path fill="#fadeda" opacity="1.00" d=" M 936.18 139.18 C 943.38 133.99 951.80 131.02 960.00 127.84 L 960.00 409.47 C 954.94 408.21 949.88 406.96 944.77 405.97 C 944.96 410.93 946.71 416.01 950.63 419.26 C 953.15 421.74 956.71 422.38 960.00 423.22 L 960.00 430.98 C 954.67 430.21 949.19 428.71 945.37 424.66 C 939.50 419.30 937.42 411.17 937.50 403.46 C 917.11 395.48 896.74 385.49 881.40 369.49 C 877.68 365.12 874.13 360.51 871.72 355.28 C 867.64 346.88 867.37 337.03 870.10 328.19 C 874.77 312.81 885.08 300.12 894.63 287.52 C 903.63 275.51 913.35 263.45 917.77 248.86 C 920.88 238.93 919.78 227.97 915.34 218.63 C 909.36 205.87 906.47 191.27 909.42 177.33 C 912.47 161.56 922.90 147.90 936.18 139.18 Z" />
</g>
<g id="#ffe8d8ff">
<path fill="#ffe8d8" opacity="1.00" d=" M 163.21 276.16 C 188.87 269.64 217.00 272.18 240.66 284.25 C 262.40 294.64 280.20 313.08 289.86 335.14 C 297.49 351.96 299.61 370.97 296.89 389.18 C 293.18 412.88 280.17 434.70 261.80 450.00 L 120.31 450.00 C 106.92 438.84 96.20 424.31 90.15 407.92 C 81.98 386.57 81.89 362.27 89.80 340.83 C 97.05 320.38 111.61 303.08 129.36 290.84 C 139.99 284.61 151.12 278.91 163.21 276.16 Z" />
</g>
</svg>
