<?xml version="1.0" encoding="UTF-8" ?>
<!DOCTYPE svg PUBLIC "-//W3C//DTD SVG 1.1//EN" "http://www.w3.org/Graphics/SVG/1.1/DTD/svg11.dtd">
<svg width="555pt" height="260pt" viewBox="0 0 555 260" version="1.1" xmlns="http://www.w3.org/2000/svg">
<g id="#b6dbe4ff">
<path fill="#b6dbe4" opacity="1.00" d=" M 0.00 0.00 L 116.42 0.00 C 116.91 3.17 116.94 6.58 118.70 9.38 C 120.63 12.52 123.06 15.32 125.36 18.20 C 118.40 23.28 111.24 28.15 103.53 32.03 C 97.13 33.04 90.56 33.00 84.19 31.76 C 77.85 30.65 71.04 29.26 64.85 31.85 C 55.62 35.66 49.76 44.38 41.18 49.27 C 28.91 56.87 13.59 55.78 0.00 53.09 L 0.00 0.00 Z" />
<path fill="#b6dbe4" opacity="1.00" d=" M 372.39 0.00 L 555.00 0.00 L 555.00 10.05 C 551.83 11.80 548.16 12.90 545.63 15.61 C 540.98 20.83 540.81 29.39 545.23 34.80 C 547.81 37.70 551.70 38.79 555.00 40.65 L 555.00 53.20 C 546.78 54.28 538.46 55.71 530.17 54.59 C 525.82 53.99 521.50 53.07 517.33 51.68 C 510.75 47.79 504.98 42.74 499.24 37.74 C 494.87 33.96 489.65 30.69 483.73 30.38 C 474.29 29.86 465.11 33.91 455.64 32.49 C 443.20 31.18 435.58 19.22 423.62 16.57 C 412.09 13.90 400.65 19.61 389.08 17.86 C 384.36 17.21 379.78 14.98 376.68 11.32 C 373.99 8.14 373.60 3.83 372.39 0.00 Z" />
<path fill="#b6dbe4" opacity="1.00" d=" M 328.38 210.50 C 337.17 208.68 347.29 209.63 354.37 215.61 C 358.75 219.27 362.40 224.29 362.98 230.11 C 363.53 235.23 362.43 240.90 358.67 244.64 C 355.42 247.91 350.44 248.90 346.02 248.09 C 342.34 247.30 339.66 244.45 337.10 241.92 C 332.37 236.97 327.56 232.10 323.00 226.99 C 320.81 224.36 318.15 221.05 319.35 217.39 C 320.68 213.58 324.70 211.49 328.38 210.50 Z" />
</g>
<g id="#caceebff">
<path fill="#caceeb" opacity="1.00" d=" M 116.42 0.00 L 242.35 0.00 C 241.72 4.66 241.81 9.86 238.73 13.73 C 235.16 18.13 229.99 21.02 224.61 22.63 C 216.20 25.09 207.29 23.12 198.77 24.84 C 190.37 26.59 183.47 32.40 175.04 34.07 C 168.62 35.56 161.64 34.48 156.06 30.93 C 150.53 27.45 145.57 22.99 139.44 20.52 C 135.04 18.47 130.12 18.30 125.36 18.20 C 123.06 15.32 120.63 12.52 118.70 9.38 C 116.94 6.58 116.91 3.17 116.42 0.00 Z" />
<path fill="#caceeb" opacity="1.00" d=" M 0.00 135.82 C 16.64 133.66 34.08 135.35 49.36 142.61 C 58.04 146.70 65.19 153.55 70.60 161.40 C 78.21 172.37 82.65 185.14 89.98 196.29 C 99.63 212.38 117.43 222.44 135.90 224.28 C 151.19 225.92 166.61 225.11 181.92 224.21 C 198.34 223.68 215.30 223.43 230.99 229.03 C 237.16 231.11 242.31 235.20 247.91 238.39 C 251.87 235.90 255.52 232.98 259.43 230.43 C 273.09 222.25 290.30 219.28 305.61 224.31 C 315.94 227.70 325.76 234.23 331.04 243.97 C 333.85 248.93 334.88 254.58 336.42 260.00 L 314.58 260.00 C 312.76 255.80 311.72 251.00 308.27 247.75 C 299.73 239.53 284.43 239.64 276.11 248.12 C 272.86 251.32 271.87 255.92 270.18 260.00 L 0.00 260.00 L 0.00 135.82 Z" />
<path fill="#caceeb" opacity="1.00" d=" M 282.13 251.08 C 287.68 246.31 296.55 246.24 302.32 250.68 C 305.11 253.14 306.20 256.85 307.97 260.00 L 276.87 260.00 C 278.52 256.98 279.55 253.49 282.13 251.08 Z" />
</g>
<g id="#fbdbd0ff">
<path fill="#fbdbd0" opacity="1.00" d=" M 242.35 0.00 L 372.39 0.00 C 373.60 3.83 373.99 8.14 376.68 11.32 C 379.78 14.98 384.36 17.21 389.08 17.86 C 400.65 19.61 412.09 13.90 423.62 16.57 C 435.58 19.22 443.20 31.18 455.64 32.49 C 465.11 33.91 474.29 29.86 483.73 30.38 C 489.65 30.69 494.87 33.96 499.24 37.74 C 504.98 42.74 510.75 47.79 517.33 51.68 C 515.68 75.08 519.38 98.47 517.74 121.86 C 516.93 127.52 516.53 133.23 515.61 138.87 C 514.54 145.14 510.82 150.43 507.93 155.95 C 503.16 164.81 495.36 171.57 487.12 177.12 C 473.82 186.18 457.49 190.34 445.69 201.63 C 429.28 201.58 412.67 207.34 400.65 218.66 C 390.51 228.05 383.09 241.02 382.13 254.98 C 381.95 256.65 381.80 258.32 381.64 260.00 L 336.42 260.00 C 334.88 254.58 333.85 248.93 331.04 243.97 C 325.76 234.23 315.94 227.70 305.61 224.31 C 290.30 219.28 273.09 222.25 259.43 230.43 C 255.52 232.98 251.87 235.90 247.91 238.39 C 242.31 235.20 237.16 231.11 230.99 229.03 C 215.30 223.43 198.34 223.68 181.92 224.21 C 166.61 225.11 151.19 225.92 135.90 224.28 C 117.43 222.44 99.63 212.38 89.98 196.29 C 98.33 191.07 106.86 185.89 113.81 178.81 C 125.95 167.19 134.57 152.17 139.02 136.01 C 142.70 123.51 142.60 110.27 141.55 97.40 C 138.77 77.53 130.19 58.30 116.22 43.77 C 112.26 39.57 107.94 35.74 103.53 32.03 C 111.24 28.15 118.40 23.28 125.36 18.20 C 130.12 18.30 135.04 18.47 139.44 20.52 C 145.57 22.99 150.53 27.45 156.06 30.93 C 161.64 34.48 168.62 35.56 175.04 34.07 C 183.47 32.40 190.37 26.59 198.77 24.84 C 207.29 23.12 216.20 25.09 224.61 22.63 C 229.99 21.02 235.16 18.13 238.73 13.73 C 241.81 9.86 241.72 4.66 242.35 0.00 M 203.37 27.37 C 201.06 28.12 199.15 29.82 197.83 31.83 C 194.00 37.22 198.25 46.18 205.02 46.18 C 210.80 47.02 216.70 41.98 216.12 36.02 C 216.08 29.81 209.12 25.32 203.37 27.37 M 305.39 202.38 C 300.10 203.23 297.00 209.63 299.83 214.24 C 302.47 219.65 311.74 219.73 313.94 213.92 C 317.19 208.52 311.38 200.91 305.39 202.38 M 328.38 210.50 C 324.70 211.49 320.68 213.58 319.35 217.39 C 318.15 221.05 320.81 224.36 323.00 226.99 C 327.56 232.10 332.37 236.97 337.10 241.92 C 339.66 244.45 342.34 247.30 346.02 248.09 C 350.44 248.90 355.42 247.91 358.67 244.64 C 362.43 240.90 363.53 235.23 362.98 230.11 C 362.40 224.29 358.75 219.27 354.37 215.61 C 347.29 209.63 337.17 208.68 328.38 210.50 Z" />
</g>
<g id="#f7eaddff">
<path fill="#f7eadd" opacity="1.00" d=" M 545.63 15.61 C 548.16 12.90 551.83 11.80 555.00 10.05 L 555.00 14.83 C 552.43 16.62 549.31 17.80 547.37 20.34 C 545.45 23.59 545.80 27.99 547.95 31.04 C 549.88 33.25 552.63 34.48 555.00 36.15 L 555.00 40.65 C 551.70 38.79 547.81 37.70 545.23 34.80 C 540.81 29.39 540.98 20.83 545.63 15.61 Z" />
</g>
<g id="#b8dae3ff">
<path fill="#b8dae3" opacity="1.00" d=" M 547.37 20.34 C 549.31 17.80 552.43 16.62 555.00 14.83 L 555.00 36.15 C 552.63 34.48 549.88 33.25 547.95 31.04 C 545.80 27.99 545.45 23.59 547.37 20.34 Z" />
</g>
<g id="#cbceeaff">
<path fill="#cbceea" opacity="1.00" d=" M 203.37 27.37 C 209.12 25.32 216.08 29.81 216.12 36.02 C 216.70 41.98 210.80 47.02 205.02 46.18 C 198.25 46.18 194.00 37.22 197.83 31.83 C 199.15 29.82 201.06 28.12 203.37 27.37 Z" />
</g>
<g id="#ffe8d8ff">
<path fill="#ffe8d8" opacity="1.00" d=" M 64.85 31.85 C 71.04 29.26 77.85 30.65 84.19 31.76 C 90.56 33.00 97.13 33.04 103.53 32.03 C 107.94 35.74 112.26 39.57 116.22 43.77 C 130.19 58.30 138.77 77.53 141.55 97.40 C 142.60 110.27 142.70 123.51 139.02 136.01 C 134.57 152.17 125.95 167.19 113.81 178.81 C 106.86 185.89 98.33 191.07 89.98 196.29 C 82.65 185.14 78.21 172.37 70.60 161.40 C 65.19 153.55 58.04 146.70 49.36 142.61 C 34.08 135.35 16.64 133.66 0.00 135.82 L 0.00 53.09 C 13.59 55.78 28.91 56.87 41.18 49.27 C 49.76 44.38 55.62 35.66 64.85 31.85 Z" />
</g>
<g id="#f4bdc2ff">
<path fill="#f4bdc2" opacity="1.00" d=" M 517.33 51.68 C 521.50 53.07 525.82 53.99 530.17 54.59 C 538.46 55.71 546.78 54.28 555.00 53.20 L 555.00 260.00 L 508.42 260.00 C 507.13 248.14 504.01 236.08 496.39 226.62 C 484.65 210.85 465.11 202.09 445.69 201.63 C 457.49 190.34 473.82 186.18 487.12 177.12 C 495.36 171.57 503.16 164.81 507.93 155.95 C 510.82 150.43 514.54 145.14 515.61 138.87 C 516.53 133.23 516.93 127.52 517.74 121.86 C 519.38 98.47 515.68 75.08 517.33 51.68 Z" />
<path fill="#f4bdc2" opacity="1.00" d=" M 427.85 223.61 C 446.88 215.16 471.68 222.49 482.44 240.49 C 486.16 246.36 487.25 253.31 488.56 260.00 L 421.94 260.00 C 422.63 252.76 422.83 245.43 424.42 238.31 C 425.49 233.39 426.71 228.51 427.85 223.61 Z" />
</g>
<g id="#b7dae4ff">
<path fill="#b7dae4" opacity="1.00" d=" M 305.39 202.38 C 311.38 200.91 317.19 208.52 313.94 213.92 C 311.74 219.73 302.47 219.65 299.83 214.24 C 297.00 209.63 300.10 203.23 305.39 202.38 Z" />
</g>
<g id="#b7dbe4ff">
<path fill="#b7dbe4" opacity="1.00" d=" M 400.65 218.66 C 412.67 207.34 429.28 201.58 445.69 201.63 C 465.11 202.09 484.65 210.85 496.39 226.62 C 504.01 236.08 507.13 248.14 508.42 260.00 L 488.56 260.00 C 487.25 253.31 486.16 246.36 482.44 240.49 C 471.68 222.49 446.88 215.16 427.85 223.61 C 417.84 227.41 409.34 235.17 404.92 244.94 C 402.70 249.67 402.34 254.94 401.40 260.00 L 381.64 260.00 C 381.80 258.32 381.95 256.65 382.13 254.98 C 383.09 241.02 390.51 228.05 400.65 218.66 Z" />
</g>
<g id="#fadbd0ff">
<path fill="#fadbd0" opacity="1.00" d=" M 404.92 244.94 C 409.34 235.17 417.84 227.41 427.85 223.61 C 426.71 228.51 425.49 233.39 424.42 238.31 C 422.83 245.43 422.63 252.76 421.94 260.00 L 401.40 260.00 C 402.34 254.94 402.70 249.67 404.92 244.94 Z" />
</g>
<g id="#fdf7f1ff">
<path fill="#fdf7f1" opacity="1.00" d=" M 276.11 248.12 C 284.43 239.64 299.73 239.53 308.27 247.75 C 311.72 251.00 312.76 255.80 314.58 260.00 L 307.97 260.00 C 306.20 256.85 305.11 253.14 302.32 250.68 C 296.55 246.24 287.68 246.31 282.13 251.08 C 279.55 253.49 278.52 256.98 276.87 260.00 L 270.18 260.00 C 271.87 255.92 272.86 251.32 276.11 248.12 Z" />
</g>
</svg>
